<svg width="512" height="512" viewBox="0 0 512 512" fill="none" xmlns="http://www.w3.org/2000/svg">
<g clip-path="url(#clip0_1_2)">
<path d="M392.86 452.736C294.485 452.736 226.93 503.694 179.527 503.694C132.124 503.694 32.5689 476.444 32.5689 258.375C32.5689 40.3058 166.5 8.29155 218.638 8.29155C462.791 8.29155 567.083 452.736 392.86 452.736Z" fill="#EFEFEF"/>
<path d="M288 138.667H259.556V152.889C259.556 156.661 258.057 160.278 255.39 162.946C252.723 165.613 249.105 167.111 245.333 167.111H167.111C163.339 167.111 159.722 165.613 157.054 162.946C154.387 160.278 152.889 156.661 152.889 152.889V138.667H124.444C108.8 138.667 96 151.467 96 167.111V344.889C96 360.533 108.8 373.333 124.444 373.333H288C303.644 373.333 316.444 360.533 316.444 344.889V167.111C316.444 151.467 303.644 138.667 288 138.667Z" fill="#F3F3F1"/>
<path d="M259.556 124.444V152.889C259.556 156.661 258.057 160.278 255.39 162.946C252.723 165.613 249.105 167.111 245.333 167.111H167.111C163.339 167.111 159.722 165.613 157.054 162.946C154.387 160.278 152.889 156.661 152.889 152.889V124.444H177.778C177.778 108.8 190.578 96 206.222 96C221.867 96 234.667 108.8 234.667 124.444H259.556ZM341.333 416C341.333 416 416 384.256 416 320.768V263.623L341.333 238.222L266.667 263.623V320.768C266.667 384.256 341.333 416 341.333 416Z" fill="#2FDF84"/>
<path d="M291.556 152.889V139.022C290.375 138.866 289.223 138.667 288 138.667H259.556V152.889C259.556 156.661 258.057 160.278 255.39 162.946C252.723 165.613 249.105 167.111 245.333 167.111H277.333C281.105 167.111 284.723 165.613 287.39 162.946C290.057 160.278 291.556 156.661 291.556 152.889ZM128 344.889V167.111C128 152.69 138.923 140.814 152.889 139.022V138.667H124.444C108.8 138.667 96 151.467 96 167.111V344.889C96 360.533 108.8 373.333 124.444 373.333H156.444C140.8 373.333 128 360.533 128 344.889Z" fill="#D5DBE1"/>
<path d="M184.889 152.889V124.444H209.778C209.778 114.731 214.727 106.112 222.222 100.978C217.516 97.7367 211.937 96.0009 206.222 96C190.578 96 177.778 108.8 177.778 124.444H152.889V152.889C152.889 156.661 154.387 160.278 157.054 162.946C159.722 165.613 163.339 167.111 167.111 167.111H199.111C195.339 167.111 191.722 165.613 189.054 162.946C186.387 160.278 184.889 156.661 184.889 152.889ZM298.667 320.768V263.623L357.333 243.669L341.333 238.222L266.667 263.623V320.768C266.667 384.256 341.333 416 341.333 416C341.333 416 348.032 413.113 357.333 407.481C335.403 394.197 298.667 365.34 298.667 320.768Z" fill="#00B871"/>
<path d="M341.333 426.667C339.911 426.667 338.489 426.382 337.152 425.813C333.852 424.405 256 390.5 256 320.768V263.623C256.001 261.395 256.699 259.223 257.998 257.411C259.296 255.6 261.129 254.241 263.239 253.525L337.906 228.124C340.129 227.37 342.538 227.37 344.761 228.124L419.428 253.525C421.538 254.241 423.371 255.6 424.669 257.411C425.967 259.223 426.666 261.395 426.667 263.623V320.768C426.667 390.5 348.814 424.405 345.515 425.828C344.19 426.379 342.769 426.664 341.333 426.667ZM277.333 271.26V320.754C277.333 368.156 326.485 396.658 341.333 404.167C356.181 396.658 405.333 368.156 405.333 320.754V271.26L341.333 249.486L277.333 271.26Z" fill="black"/>
<path d="M337.778 362.667C336.377 362.67 334.989 362.395 333.695 361.858C332.401 361.321 331.227 360.532 330.24 359.538L301.796 331.093L316.885 316.004L336.64 335.758L371.911 288.711L388.964 301.511L346.297 358.4C345.38 359.623 344.21 360.634 342.868 361.365C341.526 362.096 340.042 362.53 338.517 362.638L337.778 362.667ZM235.947 384H124.444C114.074 383.992 104.13 379.869 96.797 372.536C89.4639 365.203 85.3409 355.259 85.3333 344.889V167.111C85.3409 156.741 89.4639 146.797 96.797 139.464C104.13 132.131 114.074 128.008 124.444 128H151.182V149.333H124.444C114.645 149.333 106.667 157.312 106.667 167.111V344.889C106.667 354.688 114.645 362.667 124.444 362.667H235.947V384ZM327.111 201.671H305.778V167.111C305.778 157.312 297.799 149.333 288 149.333H261.404V128H288C298.371 128.008 308.314 132.131 315.647 139.464C322.981 146.797 327.104 156.741 327.111 167.111V201.671Z" fill="black"/>
<path d="M245.333 177.778H167.111C153.387 177.778 142.222 166.613 142.222 152.889V124.444C142.222 121.615 143.346 118.902 145.346 116.902C147.347 114.902 150.06 113.778 152.889 113.778H168.59C173.255 97.3796 188.359 85.3333 206.222 85.3333C224.085 85.3333 239.189 97.3796 243.854 113.778H259.556C262.385 113.778 265.098 114.902 267.098 116.902C269.098 118.902 270.222 121.615 270.222 124.444V152.889C270.222 166.613 259.058 177.778 245.333 177.778ZM163.556 135.111V152.889C163.556 154.852 165.148 156.444 167.111 156.444H245.333C246.276 156.444 247.181 156.07 247.847 155.403C248.514 154.736 248.889 153.832 248.889 152.889V135.111H234.667C231.838 135.111 229.125 133.987 227.124 131.987C225.124 129.987 224 127.273 224 124.444C224 114.645 216.021 106.667 206.222 106.667C196.423 106.667 188.444 114.645 188.444 124.444C188.444 127.273 187.321 129.987 185.32 131.987C183.32 133.987 180.607 135.111 177.778 135.111H163.556ZM138.667 199.111H273.778V220.444H138.667V199.111ZM138.667 241.778H225.707V263.111H138.667V241.778ZM138.667 284.444H224V305.778H138.667V284.444Z" fill="black"/>
<path d="M200.889 -1.90735e-06H215.111V28.4444H200.889V-1.90735e-06ZM151.111 42.6667H179.556V56.8889H151.111V42.6667ZM232.889 42.6667H261.333V56.8889H232.889V42.6667ZM440.604 231.111C428.843 231.111 419.271 221.54 419.271 209.778C419.271 198.016 428.843 188.444 440.604 188.444C452.366 188.444 461.938 198.016 461.938 209.778C461.938 221.54 452.38 231.111 440.604 231.111ZM440.604 202.667C436.693 202.667 433.493 205.867 433.493 209.778C433.493 213.689 436.693 216.889 440.604 216.889C444.516 216.889 447.716 213.689 447.716 209.778C447.716 205.867 444.53 202.667 440.604 202.667Z" fill="#A4AFC1"/>
</g>
<defs>
<clipPath id="clip0_1_2">
<rect width="512" height="512" fill="white"/>
</clipPath>
</defs>
</svg>
